# Blender v2.68 (sub 0) OBJ File: ''
# www.blender.org
mtllib club.mtl
v -0.124951 -61.145565 -1.054230
v -0.124951 -0.030411 -0.308372
v 0.184066 -61.145565 -1.005286
v -0.046417 -0.030411 -0.295934
v 0.462834 -61.145565 -0.863247
v 0.024430 -0.030411 -0.259835
v 0.684066 -61.145565 -0.642015
v 0.080654 -0.030411 -0.203611
v 0.826105 -61.145565 -0.363247
v 0.116752 -0.030411 -0.132764
v 0.875049 -61.145565 -0.054230
v 0.129191 -0.030411 -0.054230
v 0.826105 -61.145565 0.254787
v 0.116752 -0.030411 0.024304
v 0.684066 -61.145565 0.533556
v 0.080654 -0.030411 0.095151
v 0.462834 -61.145565 0.754787
v 0.024430 -0.030411 0.151375
v 0.184065 -61.145565 0.896827
v -0.046417 -0.030411 0.187474
v -0.124952 -61.145565 0.945770
v -0.124951 -0.030411 0.199912
v -0.433969 -61.145565 0.896827
v -0.203486 -0.030411 0.187474
v -0.712737 -61.145565 0.754787
v -0.274332 -0.030411 0.151375
v -0.933969 -61.145565 0.533555
v -0.330557 -0.030411 0.095151
v -1.076008 -61.145565 0.254786
v -0.366655 -0.030411 0.024304
v -1.124951 -61.145565 -0.054231
v -0.379093 -0.030411 -0.054230
v -1.076008 -61.145565 -0.363248
v -0.366655 -0.030411 -0.132764
v -0.933968 -61.145565 -0.642016
v -0.330557 -0.030411 -0.203611
v -0.712736 -61.145565 -0.863248
v -0.274332 -0.030411 -0.259835
v -0.433967 -61.145565 -1.005287
v -0.203485 -0.030411 -0.295934
vt 0.469713 0.084567
vt 0.472149 0.914293
vt 0.639614 0.084400
vt 0.515493 0.914302
vt 0.793455 0.083909
vt 0.554687 0.914330
vt 0.585904 0.914368
vt 0.916292 0.083146
vt 0.996119 0.082180
vt 0.606102 0.914419
vt 0.613271 0.914481
vt 1.024971 0.081109
vt 0.999793 0.080033
vt 0.606720 0.914537
vt 0.922830 0.079060
vt 0.587058 0.914591
vt 0.556209 0.914633
vt 0.801455 0.078285
vt 0.647531 0.077787
vt 0.517193 0.914661
vt 0.476310 0.077613
vt 0.473838 0.914666
vt 0.430387 0.914661
vt 0.304745 0.077787
vt 0.149893 0.078285
vt 0.391134 0.914633
vt 0.359916 0.914591
vt 0.027056 0.079060
vt 0.339778 0.914537
vt -0.051772 0.080033
vt -0.078984 0.081109
vt 0.332717 0.914481
vt -0.052165 0.082180
vt 0.339374 0.914419
vt 0.359096 0.914368
vt 0.025820 0.083146
vt 0.389945 0.914330
vt 0.300120 0.084400
vt 0.428902 0.914302
vt 0.147218 0.083909
vn 0.000000 -0.669118 -0.743126
vn 0.000000 0.677999 -0.735038
vn 0.229652 -0.669027 -0.706839
vn 0.227119 0.677999 -0.699057
vn 0.436842 -0.669027 -0.601245
vn 0.432051 0.677999 -0.594653
vn 0.594653 0.677999 -0.432051
vn 0.601276 -0.669027 -0.436842
vn 0.706839 -0.669027 -0.229652
vn 0.699057 0.677999 -0.227119
vn 0.735038 0.677999 0.000000
vn 0.743217 -0.669027 0.000000
vn 0.706839 -0.669027 0.229621
vn 0.699057 0.677999 0.227119
vn 0.601276 -0.669027 0.436842
vn 0.594653 0.677999 0.432051
vn 0.432051 0.677999 0.594653
vn 0.436842 -0.669027 0.601276
vn 0.229652 -0.669027 0.706839
vn 0.227119 0.677999 0.699057
vn 0.000000 -0.669027 0.743217
vn 0.000000 0.677999 0.735038
vn -0.227119 0.677999 0.699057
vn -0.229652 -0.669027 0.706839
vn -0.436842 -0.669027 0.601276
vn -0.432051 0.677999 0.594653
vn -0.594653 0.677999 0.432051
vn -0.601276 -0.669027 0.436811
vn -0.699057 0.677999 0.227119
vn -0.706839 -0.669027 0.229652
vn -0.743217 -0.669027 0.000000
vn -0.735038 0.677999 0.000000
vn -0.706839 -0.669027 -0.229652
vn -0.699057 0.677999 -0.227119
vn -0.594653 0.677999 -0.432051
vn -0.601276 -0.669027 -0.436842
vn -0.432051 0.677999 -0.594653
vn -0.229652 -0.669027 -0.706839
vn -0.227119 0.677999 -0.699057
vn -0.436842 -0.669027 -0.601276
g Cylinder_Cylinder_None
usemtl Club
s 1
f 1/1/1 2/2/2 3/3/3
f 3/3/3 4/4/4 5/5/5
f 5/5/5 6/6/6 8/7/7
f 7/8/8 8/7/7 9/9/9
f 9/9/9 10/10/10 12/11/11
f 11/12/12 12/11/11 13/13/13
f 13/13/13 14/14/14 15/15/15
f 15/15/15 16/16/16 18/17/17
f 17/18/18 18/17/17 19/19/19
f 19/19/19 20/20/20 21/21/21
f 21/21/21 22/22/22 24/23/23
f 23/24/24 24/23/23 25/25/25
f 25/25/25 26/26/26 28/27/27
f 27/28/28 28/27/27 30/29/29
f 29/30/30 30/29/29 31/31/31
f 31/31/31 32/32/32 33/33/33
f 33/33/33 34/34/34 36/35/35
f 35/36/36 36/35/35 38/37/37
f 4/4/4 2/2/2 6/6/6
f 39/38/38 40/39/39 2/2/2
f 37/40/40 38/37/37 39/38/38
f 1/1/1 3/3/3 39/38/38
f 11/12/12 13/13/13 15/15/15
f 18/17/17 20/20/20 19/19/19
f 7/8/8 5/5/5 8/7/7
f 38/37/37 40/39/39 39/38/38
f 11/12/12 9/9/9 12/11/11
f 24/23/23 26/26/26 25/25/25
f 8/7/7 10/10/10 9/9/9
f 17/18/18 15/15/15 18/17/17
f 30/29/29 32/32/32 31/31/31
f 2/2/2 4/4/4 3/3/3
f 23/24/24 21/21/21 24/23/23
f 14/14/14 16/16/16 15/15/15
f 27/28/28 25/25/25 28/27/27
f 29/30/30 27/28/28 30/29/29
f 32/32/32 34/34/34 33/33/33
f 20/20/20 22/22/22 21/21/21
f 35/36/36 33/33/33 36/35/35
f 37/40/40 35/36/36 38/37/37
f 6/6/6 2/2/2 38/37/37
f 38/37/37 36/35/35 6/6/6
f 32/32/32 30/29/29 26/26/26
f 22/22/22 26/26/26 24/23/23
f 2/2/2 40/39/39 38/37/37
f 5/5/5 7/8/8 9/9/9
f 36/35/35 34/34/34 32/32/32
f 6/6/6 36/35/35 32/32/32
f 6/6/6 32/32/32 22/22/22
f 8/7/7 6/6/6 10/10/10
f 6/6/6 22/22/22 10/10/10
f 10/10/10 22/22/22 18/17/17
f 26/26/26 22/22/22 32/32/32
f 18/17/17 16/16/16 10/10/10
f 16/16/16 14/14/14 10/10/10
f 14/14/14 12/11/11 10/10/10
f 1/1/1 39/38/38 2/2/2
f 4/4/4 6/6/6 5/5/5
f 3/3/3 5/5/5 39/38/38
f 39/38/38 5/5/5 9/9/9
f 31/31/31 33/33/33 35/36/36
f 39/38/38 9/9/9 37/40/40
f 9/9/9 11/12/12 37/40/40
f 27/28/28 23/24/24 25/25/25
f 21/21/21 23/24/24 19/19/19
f 22/22/22 20/20/20 18/17/17
f 29/30/30 19/19/19 27/28/28
f 29/30/30 17/18/18 19/19/19
f 37/40/40 11/12/12 15/15/15
f 17/18/18 29/30/30 31/31/31
f 37/40/40 15/15/15 35/36/36
f 23/24/24 27/28/28 19/19/19
f 15/15/15 17/18/18 31/31/31
f 30/29/29 28/27/27 26/26/26
f 15/15/15 31/31/31 35/36/36
f 12/11/11 14/14/14 13/13/13
